HIERARCHY
ROOT SpineBase
{
  OFFSET 0.000000 0.000000 0.000000
  CHANNELS 6 Xposition Yposition Zposition Zrotation Xrotation Yrotation
  JOINT SpineMid
  {
    OFFSET 0.000000 30.005057 0.000000
    CHANNELS 3 Zrotation Xrotation Yrotation
    JOINT SpineShoulder
    {
      OFFSET 0.084860 22.396264 -0.793554
      CHANNELS 3 Zrotation Xrotation Yrotation
      JOINT Neck
      {
        OFFSET 0.038831 7.441692 -0.591092
        CHANNELS 3 Zrotation Xrotation Yrotation
        JOINT Head
        {
          OFFSET -2.983742 13.585319 -1.217959
          CHANNELS 3 Zrotation Xrotation Yrotation
          End Site
          {
            OFFSET 0 0 0
          }
        }
      }
      JOINT ShoulderLeft
      {
        OFFSET -16.552085 -3.131973 1.818212
        CHANNELS 3 Zrotation Xrotation Yrotation
        JOINT ElbowLeft
        {
          OFFSET -4.611053 -24.763859 1.994630
          CHANNELS 3 Zrotation Xrotation Yrotation
          JOINT WristLeft
          {
            OFFSET -6.668386 -14.952493 -11.597438
            CHANNELS 3 Zrotation Xrotation Yrotation
            JOINT HandLeft
            {
              OFFSET 3.365777 -5.820056 0.993093
              CHANNELS 3 Zrotation Xrotation Yrotation
              JOINT HandTipLeft
              {
                OFFSET -1.422821 -5.601540 -3.193197
                CHANNELS 3 Zrotation Xrotation Yrotation
                End Site
                {
                  OFFSET 0 0 0
                }
              }
              JOINT ThumbLeft
              {
                OFFSET -2.457360 3.015263 -5.046068
                CHANNELS 3 Zrotation Xrotation Yrotation
                End Site
                {
                  OFFSET 0 0 0
                }
              }
            }
          }
        }
      }
      JOINT ShoulderRight
      {
        OFFSET 15.827284 -1.517123 -4.573868
        CHANNELS 3 Zrotation Xrotation Yrotation
        JOINT ElbowRight
        {
          OFFSET 5.271509 -24.215414 2.416952
          CHANNELS 3 Zrotation Xrotation Yrotation
          JOINT WristRight
          {
            OFFSET -0.192494 -18.525849 -4.949255
            CHANNELS 3 Zrotation Xrotation Yrotation
            JOINT HandRight
            {
              OFFSET -1.716125 -7.332096 -1.374450
              CHANNELS 3 Zrotation Xrotation Yrotation
              JOINT HandTipRight
              {
                OFFSET 0.653546 -6.699393 -1.396345
                CHANNELS 3 Zrotation Xrotation Yrotation
                End Site
                {
                  OFFSET 0 0 0
                }
              }
              JOINT ThumbRight
              {
                OFFSET 2.921274 0.552238 -2.693187
                CHANNELS 3 Zrotation Xrotation Yrotation
                End Site
                {
                  OFFSET 0 0 0
                }
              }
            }
          }
        }
      }
    }
  }
  JOINT HipLeft
  {
    OFFSET -7.326927 0.817240 -2.129061
    CHANNELS 3 Zrotation Xrotation Yrotation
    JOINT KneeLeft
    {
      OFFSET 1.317702 -28.343351 -1.230134
      CHANNELS 3 Zrotation Xrotation Yrotation
      JOINT AnkleLeft
      {
        OFFSET 3.616803 -31.813744 3.595636
        CHANNELS 3 Zrotation Xrotation Yrotation
        JOINT FootLeft
        {
          OFFSET -1.244365 -5.361816 -9.744755
          CHANNELS 3 Zrotation Xrotation Yrotation
          End Site
          {
            OFFSET 0 0 0
          }
        }
      }
    }
  }
  JOINT HipRight
  {
    OFFSET 7.333369 1.205810 -4.583498
    CHANNELS 3 Zrotation Xrotation Yrotation
    JOINT KneeRight
    {
      OFFSET 2.577423 -28.131905 4.378375
      CHANNELS 3 Zrotation Xrotation Yrotation
      JOINT AnkleRight
      {
        OFFSET -1.739229 -31.158560 4.065217
        CHANNELS 3 Zrotation Xrotation Yrotation
        JOINT FootRight
        {
          OFFSET 1.444380 -7.179728 -6.559907
          CHANNELS 3 Zrotation Xrotation Yrotation
          End Site
          {
            OFFSET 0 0 0
          }
        }
      }
    }
  }
}
MOTION
Frames: 10
Frame Time: 0.033333
0.837366 69.019796 347.971828 -0.000000 0.000000 9.504352 0.000000 0.000000 -9.504352 -0.000000 0.000000 0.000000 -0.000000 0.000000 0.000000 0.000000 0.000000 0.000000 -0.000000 0.000000 0.000000 -0.000000 0.000000 0.000000 -0.000000 0.000000 0.000000 -0.000000 0.000000 0.000000 0.000000 0.000000 0.000000 0.000000 0.000000 0.000000 -0.000000 0.000000 0.000000 -0.000000 0.000000 0.000000 -0.000000 0.000000 0.000000 -0.000000 0.000000 0.000000 0.000000 0.000000 0.000000 0.000000 0.000000 0.000000 0.000000 0.000000 -9.504352 -0.000000 0.000000 0.000000 -0.000000 0.000000 0.000000 0.000000 0.000000 0.000000 0.000000 0.000000 -9.504352 -0.000000 0.000000 0.000000 -0.000000 0.000000 0.000000 0.000000 0.000000 0.000000
0.932199 69.178174 347.839976 0.065149 0.104413 9.685625 -0.081787 -0.091964 -9.685750 -0.000000 0.000000 0.000000 -0.000000 0.000000 0.000000 0.000000 0.000000 0.000000 -0.000000 0.000000 0.000000 2.866405 -3.177102 -0.751471 -11.631509 9.919761 4.647329 2.782081 -3.291534 -0.580902 0.000000 0.000000 0.000000 0.000000 0.000000 0.000000 -0.000000 0.000000 0.000000 -0.000000 0.000000 0.000000 -1.373842 0.949404 0.046509 -0.514577 0.931632 0.552159 0.000000 0.000000 0.000000 0.000000 0.000000 0.000000 -0.081787 -0.091964 -9.685750 -0.000000 0.000000 0.000000 -0.922755 2.173489 1.148332 0.000000 0.000000 0.000000 -0.081787 -0.091964 -9.685750 -0.000000 0.000000 0.000000 -0.584227 -0.457921 0.441401 0.000000 0.000000 0.000000
1.005826 69.303484 347.723389 0.118092 0.199709 9.826227 -0.150443 -0.176625 -9.826665 -0.000000 0.000000 0.000000 0.015540 0.908630 0.200973 0.000000 0.000000 0.000000 -0.000000 0.000000 0.000000 5.896995 -6.521965 -1.425492 -25.898880 19.424534 12.532429 8.252439 -8.679924 -1.994221 0.000000 0.000000 0.000000 0.000000 0.000000 0.000000 -0.000000 0.000000 0.000000 -0.000000 0.000000 0.000000 -2.584080 1.737919 0.115941 -0.865802 1.539097 0.992681 0.000000 0.000000 0.000000 0.000000 0.000000 0.000000 -0.150443 -0.176625 -9.826665 -0.000000 0.000000 0.000000 -1.671539 3.245867 2.210400 0.000000 0.000000 0.000000 -0.995657 -0.173725 -9.971968 0.832948 0.143482 0.141676 -1.489344 -0.795029 1.201283 0.000000 0.000000 0.000000
1.058247 69.395726 347.622067 0.158660 0.285662 9.926263 -0.205529 -0.254034 -9.927114 -0.000000 0.000000 0.000000 0.094003 1.162658 0.263028 0.000000 0.000000 0.000000 -0.000000 0.000000 0.000000 8.994791 -9.906159 -1.983604 -41.702697 26.444238 23.067057 15.212427 -15.124813 -3.338047 0.000000 0.000000 0.000000 0.000000 0.000000 0.000000 -0.000000 0.000000 0.000000 -0.000000 0.000000 0.000000 -3.644579 2.376360 0.200492 -1.016438 1.808148 1.303555 0.000000 0.000000 0.000000 0.000000 0.000000 0.000000 -0.205529 -0.254034 -9.927114 -0.000000 0.000000 0.000000 -2.237537 3.270289 3.190925 0.000000 0.000000 0.000000 -1.316078 -0.274872 -10.121474 1.089607 0.215612 0.187184 -2.723446 -1.010123 2.290675 0.000000 0.000000 0.000000
1.089460 69.454899 347.536012 0.186723 0.362075 9.985780 -0.246683 -0.324209 -9.987068 -0.000000 0.000000 0.000000 0.220224 1.286689 0.300053 0.000000 0.000000 0.000000 -0.000000 0.000000 0.000000 12.053970 -13.188439 -2.406277 -56.438780 30.096187 33.941637 22.483940 -21.342874 -4.025644 0.000000 0.000000 0.000000 0.000000 0.000000 0.000000 -0.000000 0.000000 0.000000 0.526014 0.613928 -0.149518 -5.096442 2.249018 0.388786 -0.943346 1.735464 1.474236 0.000000 0.000000 0.000000 0.000000 0.000000 0.000000 -0.246683 -0.324209 -9.987068 0.797990 -0.500175 0.036764 -3.404364 2.740400 4.093742 0.000000 0.000000 0.000000 -1.510225 -0.387754 -10.212829 1.232262 0.286457 0.214829 -4.283671 -1.111104 3.710108 0.000000 0.000000 0.000000
1.099467 69.481005 347.465222 0.202196 0.428789 10.004765 -0.273620 -0.387138 -10.006446 -0.000000 0.000000 0.000000 0.395137 1.281409 0.312530 0.000000 0.000000 0.000000 -0.000000 0.000000 0.000000 14.973615 -16.239554 -2.696575 -67.689378 31.312958 42.774282 29.496070 -26.615623 -4.008405 0.000000 0.000000 0.000000 0.000000 0.000000 0.000000 -0.000000 0.000000 0.000000 0.395137 0.709737 -0.115198 -5.757596 2.519754 0.436435 -0.634914 1.324209 1.501330 0.000000 0.000000 0.000000 0.000000 0.000000 0.000000 -0.729584 -1.158312 -10.037929 1.239639 0.322539 0.059391 -3.680575 0.597947 4.939747 0.000000 0.000000 0.000000 -1.575374 -0.512763 -10.244979 1.258665 0.354996 0.224410 -6.152760 -1.115056 5.446026 0.000000 0.000000 0.000000
1.055583 69.438608 347.423957 0.167125 0.478060 9.927055 -0.247045 -0.442088 -9.928706 -0.000000 0.000000 0.000000 0.517194 1.405511 0.348769 0.000000 0.000000 0.000000 -0.000000 0.000000 0.000000 18.953069 -20.111216 -3.021732 -80.358512 31.044221 53.094241 38.891238 -32.913624 -2.955437 0.000000 0.000000 0.000000 0.000000 0.000000 0.000000 -0.000000 0.000000 0.000000 -0.000000 0.000000 0.000000 -6.008642 3.475088 0.487454 -0.534772 -0.722542 1.270567 0.000000 0.000000 0.000000 0.000000 0.000000 0.000000 -0.491389 -1.600321 -9.986311 1.044679 0.660006 0.090559 -3.025532 -8.401826 6.438946 0.000000 0.000000 0.000000 -1.480256 -0.623043 -10.160279 1.181959 0.395496 0.216031 -10.074766 -0.974968 9.161329 0.000000 0.000000 0.000000
0.905482 69.417310 347.315298 0.012104 0.659190 9.790924 -0.124031 -0.647530 -9.791694 -0.000000 0.000000 0.000000 0.395897 1.635458 0.389264 0.000000 0.000000 0.000000 -0.000000 0.000000 0.000000 22.097920 -23.154970 -3.052150 -83.901776 30.866756 56.155331 46.040200 -36.512757 -1.403715 0.000000 0.000000 0.000000 0.000000 0.000000 0.000000 -0.000000 0.000000 0.000000 -0.229520 0.866001 0.053943 -6.798783 2.820641 0.516344 2.214566 -1.663987 0.756347 0.000000 0.000000 0.000000 0.000000 0.000000 0.000000 0.088885 -3.427039 -9.939537 0.277056 2.935033 0.259608 -2.246089 -14.806820 6.987004 0.000000 0.000000 0.000000 -0.969148 -1.034752 -9.971566 0.765291 0.527591 0.163941 -10.113088 -4.204727 8.465609 0.000000 0.000000 0.000000
0.820909 69.375814 347.279087 0.012757 0.735274 9.560722 -0.134711 -0.722941 -9.561653 -0.000000 0.000000 0.000000 -0.000000 0.000000 0.000000 0.000000 0.000000 0.000000 -0.000000 0.000000 0.000000 23.866849 -25.020076 -2.822987 -78.950787 32.423643 53.148802 48.045378 -36.288408 -1.942071 0.000000 0.000000 0.000000 0.000000 0.000000 0.000000 -0.000000 0.000000 0.000000 -0.527792 1.111948 0.134216 -6.571390 2.509732 0.440530 2.754460 -2.685149 0.505425 0.000000 0.000000 0.000000 0.000000 0.000000 0.000000 0.309499 -4.351247 -9.750285 0.041592 4.072639 0.356455 -2.270900 -16.622678 7.312277 0.000000 0.000000 0.000000 -1.000816 -1.187722 -9.752123 1.587545 1.005967 0.244492 -14.738665 -3.807883 12.074450 0.000000 0.000000 0.000000
0.805208 69.253298 347.262469 0.017655 0.699664 9.416979 -0.131902 -0.687346 -9.417878 -0.000000 0.000000 0.000000 1.674233 -1.103829 -0.075893 0.000000 0.000000 0.000000 -0.000000 0.000000 0.000000 23.640085 -25.055768 -2.608556 -57.896535 35.534056 39.583104 39.534615 -29.503255 -8.051435 0.000000 0.000000 0.000000 0.000000 0.000000 0.000000 -0.000000 0.000000 0.000000 -1.072255 1.201855 0.284399 -6.377173 2.077589 0.420366 3.897036 -4.081883 0.021158 0.000000 0.000000 0.000000 0.000000 0.000000 0.000000 0.041257 -3.813162 -9.582919 0.889015 3.239289 0.302387 -2.172231 -25.320414 11.028014 0.000000 0.000000 0.000000 -0.131902 -0.687346 -9.417878 -0.000000 0.000000 0.000000 -13.191633 1.419432 12.656106 0.000000 0.000000 0.000000
